<?xml version="1.0" standalone="no"?><!DOCTYPE svg PUBLIC "-//W3C//DTD SVG 1.1//EN" "http://www.w3.org/Graphics/SVG/1.1/DTD/svg11.dtd"><svg t="1591659321588" class="icon" viewBox="0 0 1024 1024" version="1.1" xmlns="http://www.w3.org/2000/svg" p-id="1901" xmlns:xlink="http://www.w3.org/1999/xlink" width="200" height="200"><defs><style type="text/css"></style></defs><path d="M979.327911 981.281371c-35.408912 35.4149-93.295965 33.81602-126.692803-3.501169L508.520528 593.334314l-3.812561-92.202099 86.682868 9.341772 384.437903 344.108592c37.317188 33.402826 38.916069 91.28988 3.501169 126.698792z m0 0" fill="#BA7E56" p-id="1902"></path><path d="M979.327911 981.281371c-35.408912 35.4149-93.287981 33.800051-126.692803-3.501169L508.520528 593.334314l-3.563048-86.425371 30.775951 59.204483 357.356743 371.215702c34.674345 36.029701 74.091436 56.106528 86.239733 43.952243z m0 0M504.83971 504.056509l0.115774 2.854431-2.065969-3.954285z m0 0" fill="#996441" p-id="1903"></path><path d="M95.745914 561.600232L568.495507 88.850639l222.254348 222.252352-472.749593 472.749593z m0 0" fill="#996441" p-id="1904"></path><path d="M192.253613 465.092534L471.987809 185.358338l222.254347 222.252351-279.734195 279.734196z m0 0" fill="#F9C84E" p-id="1905"></path><path d="M377.486196 584.156222l213.567297-213.567297 70.105214 70.105214L447.59141 654.263432z m0 0" fill="#F7A34F" p-id="1906"></path><path d="M447.599394 720.430331c-18.278336 18.27634-47.898543 18.27634-66.168894 0L154.209842 493.209673c-18.268356-18.268356-18.268356-47.890558 0-66.166899 18.270352-18.270352 47.898543-18.270352 66.168894 0L447.599394 654.263432c18.268356 18.27634 18.268356 47.898543 0 66.166899z m0 0" fill="#BA7E56" p-id="1907"></path><path d="M304.089404 643.081251l77.333111 77.333111c18.284324 18.284324 47.906527 18.284324 66.176879 0.015969 18.268356-18.268356 18.268356-47.882574-0.015969-66.166899l-77.333111-77.343091c18.268356 18.270352 18.284324 47.906527 0.007984 66.176878-18.270352 18.268356-47.898543 18.252387-66.168894-0.015968z m0 0" fill="#996441" p-id="1908"></path><path d="M727.33359 440.694139c18.270352-18.268356 18.270352-47.898543 0-66.166899L500.112932 147.306582c-18.268356-18.268356-47.898543-18.268356-66.166898 0-18.268356 18.27634-18.268356 47.898543 0 66.166899l227.220658 227.220658c18.268356 18.270352 47.890558 18.270352 66.166898 0z m0 0M342.640185 825.389539l-11.417722 11.415726c-21.011004 21.013-55.078533 21.013-76.091534 0L37.834907 619.509243c-21.005016-21.013-21.005016-55.078533 0-76.091534l11.417722-11.417722c21.013-21.013 55.078533-21.013 76.091534 0l217.296022 217.296022c21.013 21.013 21.013 55.080529 0 76.09353z m0 0M832.292799 335.73493l11.407741-11.41373c21.014997-21.014997 21.014997-55.080529 0-76.095526L626.414499 30.931648c-21.014997-21.005016-55.080529-21.005016-76.09353 0l-11.417723 11.415726c-21.011004 21.013-21.011004 55.088514 0 76.091534l217.296023 217.296022c21.007012 21.014997 55.080529 21.014997 76.09353 0z m0 0" fill="#BA7E56" p-id="1909"></path><path d="M649.98451 297.186145l77.335107 77.333111c18.284324 18.284324 18.284324 47.906527 0.013973 66.174883s-47.890558 18.270352-66.174883-0.013973l-77.333111-77.335108c18.268356 18.270352 47.898543 18.284324 66.174883 0.015969 18.270352-18.27634 18.254383-47.906527-0.015969-66.174882z m0 0M766.359445 170.886574l77.341095 77.3391c21.007012 21.014997 21.020985 55.080529 0.007985 76.087542l-11.415726 11.421714c-21.005016 21.007012-55.086518 21.007012-76.101515 0l-77.341095-77.341096c21.014997 21.014997 55.096498 21.014997 76.111494 0l11.413731-11.415726c21.013-21.013 20.999028-55.078533-0.015969-76.091534z m0 0M177.789834 759.456185l77.333111 77.341096c21.013 21.013 55.080529 21.020985 76.09353 0.015969l11.415726-11.423711c21.013-21.005016 21.013-55.088514 0-76.101514l-77.333111-77.333111c21.013 21.005016 21.013 55.086518 0 76.101514l-11.417723 11.415726c-21.011004 21.013-55.078533 20.999028-76.091533-0.015969z m0 0" fill="#996441" p-id="1910"></path><path d="M549.087376 712.547711c-18.27634-18.270352-18.27634-47.890558 0-66.168895l95.345965-95.343969c18.268356-18.270352 47.890558-18.270352 66.168894 0 18.268356 18.27634 18.268356 47.898543 0 66.166898l-95.345965 95.345966c-18.27634 18.27634-47.898543 18.27634-66.168894 0z m0 0" fill="#BA7E56" p-id="1911"></path><path d="M661.9312 665.864796l-46.682914 46.682915c-18.268356 18.27634-47.890558 18.27634-66.16091 0-18.268356-18.270352-18.268356-47.88457 0-66.15093l46.682914-46.692895c-18.268356 18.270352-18.268356 47.892554 0 66.16091 18.27634 18.268356 47.890558 18.268356 66.16091 0z m0 0" fill="#996441" p-id="1912"></path><path d="M1020.028498 916.78122c-0.786465-28.428532-12.880867-54.533597-34.073518-73.512566l-44.313537-39.656623a15.182377 15.182377 0 0 0-21.434179 1.185686 15.190361 15.190361 0 0 0 1.193671 21.434179l44.313538 39.656624c14.906914 13.349952 23.4223 31.718113 23.973224 51.727072 0.546933 19.992991-6.938462 38.784326-21.082864 52.928728-14.152387 14.144402-32.935737 21.637781-52.966654 21.07488-19.990995-0.552921-38.345183-9.068306-51.68715-23.967236l-227.815498-254.519394 75.057552-75.057552 165.341393 148.009212a15.12449 15.12449 0 0 0 10.114266 3.866456 15.182377 15.182377 0 0 0 10.128238-26.488317l-165.636817-148.270702c5.433399-9.341773 8.33374-19.979018 8.333739-31.073371 0-16.547713-6.439436-32.10935-18.144597-43.814511-11.703165-11.703165-27.266798-18.144597-43.812515-18.144597-13.425804 0-26.206866 4.24372-36.802193 12.096398l-27.258814-24.406379 49.036323-49.030335a61.99903 61.99903 0 0 0 31.758035 8.724976c15.869037 0 31.736078-6.042211 43.814511-18.120643 20.460079-20.460079 23.58598-51.780967 9.385687-75.570551l16.304188-16.296203a69.145087 69.145087 0 0 0 30.488513 7.086173c17.66154 0 35.331064-6.726875 48.77084-20.170644l11.423711-11.421714c26.893527-26.893527 26.893527-70.660131 0-97.553658L637.141568 20.202582C624.114985 7.174002 606.790787 0 588.364739 0s-35.750246 7.174002-48.77084 20.202582l-11.423711 11.415726c-23.204724 23.212708-26.368551 58.978923-9.521422 85.628925l-13.956768 13.956768c-24.27264-18.611686-59.274347-16.833156-81.473034 5.373515-22.206671 22.206671-23.985201 57.200393-5.373515 81.481019l-192.887647 192.883654c-24.280625-18.613682-59.276343-16.827168-81.481018 5.369523-22.200683 22.206671-23.985201 57.202389-5.373516 81.481019l-13.940799 13.942795c-10.924684-6.930478-23.603945-10.667187-36.868065-10.667187-18.424052 0-35.750246 7.174002-48.770841 20.196594l-11.415726 11.41373c-26.899515 26.901511-26.899515 70.668116 0 97.569627l16.390021 16.388024c5.928433 5.926437 15.541676 5.926437 21.466116 0s5.928433-15.53968 0-21.466116l-16.388024-16.388025c-15.066603-15.066603-15.066603-39.572787 0-54.637394l11.405745-11.41373a38.371132 38.371132 0 0 1 27.314705-11.307936 38.365144 38.365144 0 0 1 27.306721 11.307936l0.013972 0.013973 217.31798 217.317979c15.034665 15.056622 15.026681 39.54085-0.021957 54.589488l-11.417723 11.415726a38.397081 38.397081 0 0 1-27.320693 11.321909 38.347179 38.347179 0 0 1-27.312709-11.321909l-157.997722-157.995726c-5.924441-5.928433-15.53968-5.928433-21.46412 0s-5.928433 15.53968 0 21.46412l157.995726 157.989738c13.036564 13.036564 30.360762 20.218551 48.78681 20.218551 18.418064 0 35.744258-7.181987 48.780821-20.210567l11.415726-11.415726c21.402241-21.404237 25.753751-53.489634 13.07449-79.259353l16.288219-16.280234c9.505453 5.698881 20.406184 8.740945 31.774004 8.740945 16.553701 0 32.10935-6.44742 43.814511-18.152582 20.460079-20.460079 23.58598-51.782964 9.395668-75.572546l40.187588-40.185592 24.404383 27.258814c-7.858667 10.589339-12.108375 23.374393-12.108375 36.802193 0 16.553701 6.44742 32.117334 18.150586 43.822496 11.705161 11.703165 27.26081 18.144597 43.814511 18.144597 11.094353 0 21.745571-2.910322 31.087344-8.34372L841.331163 987.892471c18.955016 21.184665 45.044112 33.287052 73.46466 34.073518 0.98408 0.023953 1.966164 0.039922 2.948247 0.039922 27.328678 0 52.912759-10.589339 72.318895-30.003459 20.10078-20.086808 30.74601-46.800685 29.965533-75.221232zM246.811163 432.017069l192.101181-192.111162L639.700575 440.686154l-192.109165 192.111162z m279.734195-279.744177l12.359884-12.357887L739.68549 340.695252l-12.359884 12.365872z m23.08895-99.188468l11.415727-11.415726a38.37712 38.37712 0 0 1 27.320693-11.313925 38.373128 38.373128 0 0 1 27.314705 11.313925l217.296022 217.286042c15.054626 15.064607 15.054626 39.572787 0 54.637394l-11.417722 11.41373c-15.062611 15.064607-39.578776 15.064607-54.633402 0L549.632312 107.709842c-15.064607-15.054626-15.064607-39.568795 0-54.625418z m-104.959208 104.951224a31.536468 31.536468 0 0 1 22.356379-9.239971c8.092211 0 16.184422 3.07999 22.352387 9.239971l4.850536 4.856525c0.039922 0.039922 0.069864 0.079844 0.109786 0.119766 0.039922 0.043914 0.085833 0.075852 0.123758 0.115774l221.996851 221.994854c0.04591 0.047907 0.079844 0.093817 0.125754 0.133739 0.021957 0.023953 0.04591 0.039922 0.069864 0.06188 12.264071 12.335931 12.248102 32.342894-0.055891 44.646887-12.319962 12.311977-32.350879 12.319962-44.676829 0.023953-0.007984-0.015969-0.023953-0.023953-0.031937-0.039922a0.429163 0.429163 0 0 0-0.069864-0.053895L449.711273 207.782585c-0.021957-0.023953-0.039922-0.047907-0.059883-0.079845l-0.071859-0.059883-4.904431-4.898442c-12.319962-12.32595-12.319962-32.38082 0-44.708767zM146.810279 532.007971l12.367869-12.365872 200.778251 200.780247-12.365872 12.365873z m290.060049 177.693294c-12.327946 12.327946-32.382816 12.319962-44.710762 0L164.938908 482.480607c-12.327946-12.327946-12.327946-32.382816 0-44.702778a31.512514 31.512514 0 0 1 22.356379-9.24596c8.092211 0 16.186418 3.07999 22.354383 9.24596l227.220658 227.214669c12.319962 12.32595 12.319962 32.38082 0 44.708767z m155.095385-178.348016l26.743819 23.937295-65.356479 65.36646-23.94528-26.737831z m-32.149271 170.465396c-5.972347-5.972347-9.253944-13.910858-9.253945-22.356379s3.281597-16.382036 9.253945-22.346399l95.345965-95.34397a31.406721 31.406721 0 0 1 22.356379-9.263924c8.443525 0 16.38004 3.289582 22.346399 9.261928a31.402728 31.402728 0 0 1 9.261929 22.348395c0 8.443525-3.289582 16.382036-9.261929 22.35638l-95.337981 95.343969a31.406721 31.406721 0 0 1-22.356379 9.261928c-8.443525 0-16.38004-3.289582-22.354383-9.261928z m0 0" p-id="1913"></path></svg>